<svg xmlns="http://www.w3.org/2000/svg" width="1692" height="284" viewBox="0 0 1692 284"><rect width="1692" height="284" fill="#0B0E06"/><text x="24" y="44" fill="#ECE3CC" font-family="Cinzel,serif" font-size="28" font-weight="700">LAWN LORD — palette</text><rect x="24" y="70" width="150" height="150" rx="10" fill="#0B0E06" stroke="#00000022"/><text x="36" y="186" fill="#ECE3CC" font-family="Inter,sans-serif" font-size="15" font-weight="700">ink</text><text x="36" y="206" fill="#ECE3CC" font-family="monospace" font-size="13">#0B0E06</text><rect x="190" y="70" width="150" height="150" rx="10" fill="#11160A" stroke="#00000022"/><text x="202" y="186" fill="#ECE3CC" font-family="Inter,sans-serif" font-size="15" font-weight="700">charcoal</text><text x="202" y="206" fill="#ECE3CC" font-family="monospace" font-size="13">#11160A</text><rect x="356" y="70" width="150" height="150" rx="10" fill="#1E3A12" stroke="#00000022"/><text x="368" y="186" fill="#ECE3CC" font-family="Inter,sans-serif" font-size="15" font-weight="700">forest</text><text x="368" y="206" fill="#ECE3CC" font-family="monospace" font-size="13">#1E3A12</text><rect x="522" y="70" width="150" height="150" rx="10" fill="#2F5217" stroke="#00000022"/><text x="534" y="186" fill="#ECE3CC" font-family="Inter,sans-serif" font-size="15" font-weight="700">lawn</text><text x="534" y="206" fill="#ECE3CC" font-family="monospace" font-size="13">#2F5217</text><rect x="688" y="70" width="150" height="150" rx="10" fill="#4A7A22" stroke="#00000022"/><text x="700" y="186" fill="#ECE3CC" font-family="Inter,sans-serif" font-size="15" font-weight="700">grass</text><text x="700" y="206" fill="#ECE3CC" font-family="monospace" font-size="13">#4A7A22</text><rect x="854" y="70" width="150" height="150" rx="10" fill="#CFA13F" stroke="#00000022"/><text x="866" y="186" fill="#0B0E06" font-family="Inter,sans-serif" font-size="15" font-weight="700">gold</text><text x="866" y="206" fill="#0B0E06" font-family="monospace" font-size="13">#CFA13F</text><rect x="1020" y="70" width="150" height="150" rx="10" fill="#EFC666" stroke="#00000022"/><text x="1032" y="186" fill="#0B0E06" font-family="Inter,sans-serif" font-size="15" font-weight="700">gold-light</text><text x="1032" y="206" fill="#0B0E06" font-family="monospace" font-size="13">#EFC666</text><rect x="1186" y="70" width="150" height="150" rx="10" fill="#BB8527" stroke="#00000022"/><text x="1198" y="186" fill="#ECE3CC" font-family="Inter,sans-serif" font-size="15" font-weight="700">gold-deep</text><text x="1198" y="206" fill="#ECE3CC" font-family="monospace" font-size="13">#BB8527</text><rect x="1352" y="70" width="150" height="150" rx="10" fill="#ECE3CC" stroke="#00000022"/><text x="1364" y="186" fill="#0B0E06" font-family="Inter,sans-serif" font-size="15" font-weight="700">parchment</text><text x="1364" y="206" fill="#0B0E06" font-family="monospace" font-size="13">#ECE3CC</text><rect x="1518" y="70" width="150" height="150" rx="10" fill="#6B7280" stroke="#00000022"/><text x="1530" y="186" fill="#ECE3CC" font-family="Inter,sans-serif" font-size="15" font-weight="700">stone</text><text x="1530" y="206" fill="#ECE3CC" font-family="monospace" font-size="13">#6B7280</text></svg>